<?xml version="1.0" encoding="utf-8"?>
<!-- Generator: Adobe Illustrator 25.4.1, SVG Export Plug-In . SVG Version: 6.00 Build 0)  -->
<svg version="1.1" id="Capa_1" xmlns="http://www.w3.org/2000/svg" xmlns:xlink="http://www.w3.org/1999/xlink" x="0px" y="0px"
	 viewBox="0 0 137.2 44.8" style="enable-background:new 0 0 137.2 44.8;" xml:space="preserve">
<g>
	<g id="XMLID_1_">
		<g id="XMLID_9_">
			<path id="XMLID_11_" d="M31.3,23.3c0-3.4,2.8-5.1,2.9-5.1c-1.6-2.3-4.1-2.7-4.9-2.7c-2.1-0.2-4.1,1.2-5.2,1.2
				c-1.1,0-2.7-1.2-4.5-1.2c-2.3,0-4.4,1.3-5.5,3.4c-2.4,4.2-0.6,10.3,1.7,13.6c1.1,1.6,2.5,3.5,4.2,3.4c1.7-0.1,2.4-1.1,4.4-1.1
				c2.1,0,2.7,1.1,4.5,1.1c1.8,0,3-1.7,4.1-3.3c1.3-1.9,1.9-3.7,1.9-3.8C34.9,28.7,31.4,27.3,31.3,23.3z"/>
			<path id="XMLID_10_" d="M27.9,13.2c0.9-1.2,1.6-2.7,1.4-4.3c-1.3,0.1-3,0.9-4,2.1c-0.9,1-1.6,2.6-1.4,4.2
				C25.4,15.2,27,14.4,27.9,13.2z"/>
		</g>
	</g>
	<g>
		<g>
			<path d="M52.7,28.6H48l-1.1,3.4h-2l4.5-12.4h2.1l4.5,12.4h-2L52.7,28.6z M48.5,27h3.8l-1.8-5.4h-0.1L48.5,27z"/>
			<path d="M65.6,27.4c0,2.8-1.5,4.6-3.8,4.6c-1.3,0-2.3-0.6-2.8-1.6h0v4.5H57v-12h1.8v1.5h0c0.5-1,1.6-1.6,2.9-1.6
				C64.1,22.8,65.6,24.6,65.6,27.4z M63.7,27.4c0-1.8-0.9-3-2.4-3c-1.4,0-2.4,1.2-2.4,3c0,1.8,1,3,2.4,3
				C62.7,30.4,63.7,29.3,63.7,27.4z"/>
			<path d="M75.5,27.4c0,2.8-1.5,4.6-3.8,4.6c-1.3,0-2.3-0.6-2.8-1.6h0v4.5H67v-12h1.8v1.5h0c0.5-1,1.6-1.6,2.9-1.6
				C74,22.8,75.5,24.6,75.5,27.4z M73.6,27.4c0-1.8-0.9-3-2.4-3c-1.4,0-2.4,1.2-2.4,3c0,1.8,1,3,2.4,3
				C72.7,30.4,73.6,29.3,73.6,27.4z"/>
			<path d="M82.1,28.5c0.1,1.2,1.3,2,3,2c1.6,0,2.7-0.8,2.7-1.9c0-1-0.7-1.5-2.3-1.9l-1.6-0.4c-2.3-0.6-3.3-1.6-3.3-3.3
				c0-2.1,1.9-3.6,4.5-3.6c2.6,0,4.4,1.5,4.5,3.6h-1.9c-0.1-1.2-1.1-2-2.6-2s-2.5,0.8-2.5,1.9c0,0.9,0.7,1.4,2.3,1.8l1.4,0.3
				c2.5,0.6,3.6,1.6,3.6,3.4c0,2.3-1.8,3.8-4.8,3.8c-2.8,0-4.6-1.4-4.7-3.7H82.1z"/>
			<path d="M93.8,20.7v2.1h1.7v1.5h-1.7v5c0,0.8,0.3,1.1,1.1,1.1c0.2,0,0.5,0,0.6,0v1.5c-0.2,0.1-0.6,0.1-1,0.1
				c-1.8,0-2.5-0.7-2.5-2.4v-5.2h-1.3v-1.5h1.3v-2.1H93.8z"/>
			<path d="M96.5,27.4c0-2.8,1.7-4.6,4.3-4.6c2.6,0,4.3,1.8,4.3,4.6c0,2.9-1.7,4.6-4.3,4.6C98.1,32,96.5,30.3,96.5,27.4z
				 M103.2,27.4c0-2-0.9-3.1-2.4-3.1s-2.4,1.2-2.4,3.1c0,2,0.9,3.1,2.4,3.1S103.2,29.4,103.2,27.4z"/>
			<path d="M106.6,22.9h1.8v1.5h0c0.3-1,1.1-1.6,2.2-1.6c0.3,0,0.5,0,0.6,0.1v1.7c-0.1-0.1-0.5-0.1-0.8-0.1c-1.2,0-1.9,0.8-1.9,2.1
				v5.4h-1.9V22.9z"/>
			<path d="M119.8,29.3c-0.2,1.6-1.9,2.8-3.9,2.8c-2.6,0-4.3-1.8-4.3-4.6c0-2.8,1.6-4.7,4.2-4.7c2.5,0,4.1,1.7,4.1,4.5v0.6h-6.4V28
				c0,1.5,1,2.6,2.4,2.6c1,0,1.8-0.5,2.1-1.3H119.8z M113.5,26.6h4.5c0-1.4-0.9-2.3-2.2-2.3C114.5,24.3,113.6,25.2,113.5,26.6z"/>
		</g>
		<g>
			<path d="M48.2,10.2c1.8,0,2.8,1.1,2.8,3c0,1.9-1,3-2.8,3h-2.2v-6H48.2z M47,15.3h1.1c1.2,0,2-0.8,2-2.1c0-1.3-0.7-2.1-2-2.1H47
				V15.3z"/>
			<path d="M52.1,13.9c0-1.5,0.8-2.3,2.1-2.3c1.3,0,2.1,0.9,2.1,2.3c0,1.5-0.8,2.3-2.1,2.3C52.9,16.2,52.1,15.3,52.1,13.9z
				 M55.4,13.9c0-1-0.4-1.5-1.2-1.5c-0.8,0-1.2,0.6-1.2,1.5c0,1,0.4,1.6,1.2,1.6C55,15.4,55.4,14.9,55.4,13.9z"/>
			<path d="M62,16.1h-0.9l-0.9-3.3h-0.1l-0.9,3.3h-0.9L57,11.6h0.9l0.8,3.4h0.1l0.9-3.4h0.9l0.9,3.4h0.1l0.8-3.4h0.9L62,16.1z"/>
			<path d="M64.3,11.6h0.9v0.7h0.1c0.2-0.5,0.7-0.8,1.3-0.8c1,0,1.6,0.6,1.6,1.7v2.9h-0.9v-2.7c0-0.7-0.3-1.1-1-1.1
				s-1.1,0.4-1.1,1.1v2.6h-0.9V11.6z"/>
			<path d="M69.5,9.9h0.9v6.3h-0.9V9.9z"/>
			<path d="M71.6,13.9c0-1.5,0.8-2.3,2.1-2.3c1.3,0,2.1,0.9,2.1,2.3c0,1.5-0.8,2.3-2.1,2.3C72.4,16.2,71.6,15.3,71.6,13.9z M75,13.9
				c0-1-0.4-1.5-1.2-1.5c-0.8,0-1.2,0.6-1.2,1.5c0,1,0.4,1.6,1.2,1.6C74.5,15.4,75,14.9,75,13.9z"/>
			<path d="M76.8,14.9c0-0.8,0.6-1.3,1.7-1.3l1.2-0.1v-0.4c0-0.5-0.3-0.7-0.9-0.7c-0.5,0-0.8,0.2-0.9,0.5H77
				c0.1-0.8,0.8-1.3,1.8-1.3c1.1,0,1.8,0.6,1.8,1.5v3.1h-0.9v-0.6h-0.1c-0.3,0.5-0.8,0.7-1.4,0.7C77.4,16.2,76.8,15.7,76.8,14.9z
				 M79.7,14.5v-0.4l-1.1,0.1c-0.6,0-0.9,0.3-0.9,0.6c0,0.4,0.4,0.6,0.8,0.6C79.2,15.5,79.7,15,79.7,14.5z"/>
			<path d="M81.8,13.9c0-1.4,0.7-2.3,1.9-2.3c0.6,0,1.1,0.3,1.4,0.8h0.1V9.9H86v6.3h-0.9v-0.7H85c-0.3,0.5-0.8,0.8-1.4,0.8
				C82.5,16.2,81.8,15.3,81.8,13.9z M82.7,13.9c0,1,0.5,1.5,1.2,1.5c0.7,0,1.2-0.6,1.2-1.5c0-0.9-0.5-1.5-1.2-1.5
				C83.1,12.4,82.7,12.9,82.7,13.9z"/>
			<path d="M89.6,13.9c0-1.5,0.8-2.3,2.1-2.3c1.3,0,2.1,0.9,2.1,2.3c0,1.5-0.8,2.3-2.1,2.3C90.4,16.2,89.6,15.3,89.6,13.9z M93,13.9
				c0-1-0.4-1.5-1.2-1.5c-0.8,0-1.2,0.6-1.2,1.5c0,1,0.4,1.6,1.2,1.6C92.5,15.4,93,14.9,93,13.9z"/>
			<path d="M95.1,11.6h0.9v0.7H96c0.2-0.5,0.7-0.8,1.3-0.8c1,0,1.6,0.6,1.6,1.7v2.9H98v-2.7c0-0.7-0.3-1.1-1-1.1S96,12.8,96,13.5
				v2.6h-0.9V11.6z"/>
			<path d="M103.9,10.5v1.1h1v0.7h-1v2.3c0,0.5,0.2,0.7,0.6,0.7c0.1,0,0.2,0,0.3,0v0.7c-0.1,0-0.3,0-0.5,0c-1,0-1.4-0.3-1.4-1.2
				v-2.5h-0.7v-0.7h0.7v-1.1H103.9z"/>
			<path d="M106.1,9.9h0.9v2.5h0.1c0.2-0.5,0.7-0.8,1.4-0.8c1,0,1.6,0.6,1.6,1.7v2.9h-0.9v-2.7c0-0.7-0.3-1.1-1-1.1
				c-0.7,0-1.1,0.5-1.1,1.1v2.6h-0.9V9.9z"/>
			<path d="M115.2,14.9c-0.2,0.8-0.9,1.3-2,1.3c-1.3,0-2.1-0.9-2.1-2.3c0-1.4,0.8-2.4,2.1-2.4c1.3,0,2,0.9,2,2.3v0.3H112v0
				c0,0.8,0.5,1.3,1.2,1.3c0.5,0,0.9-0.2,1.1-0.5H115.2z M112,13.5h2.3c0-0.7-0.5-1.2-1.1-1.2C112.6,12.3,112.1,12.8,112,13.5z"/>
		</g>
	</g>
	<g>
		<g>
			<path d="M129.1,3.2c2.3,0,4.2,1.9,4.2,4.2v30c0,2.3-1.9,4.2-4.2,4.2H8.1c-2.3,0-4.2-1.9-4.2-4.2v-30c0-2.3,1.9-4.2,4.2-4.2H129.1
				 M129.1,2.4H8.1c-2.8,0-5,2.2-5,5v30c0,2.8,2.2,5,5,5h121c2.8,0,5-2.2,5-5v-30C134.1,4.6,131.9,2.4,129.1,2.4L129.1,2.4z"/>
		</g>
	</g>
</g>
</svg>
