<?xml version="1.0" encoding="utf-8"?>
<!-- Generator: Adobe Illustrator 25.4.1, SVG Export Plug-In . SVG Version: 6.00 Build 0)  -->
<svg version="1.1" id="Capa_1" xmlns="http://www.w3.org/2000/svg" xmlns:xlink="http://www.w3.org/1999/xlink" x="0px" y="0px"
	 viewBox="0 0 137.2 44.8" style="enable-background:new 0 0 137.2 44.8;" xml:space="preserve">
<g>
	<g>
		<g>
			<path d="M51.2,12.4c0,0.8-0.2,1.5-0.7,2c-0.6,0.6-1.3,0.9-2.2,0.9c-0.9,0-1.6-0.3-2.2-0.9c-0.6-0.6-0.9-1.3-0.9-2.2
				c0-0.9,0.3-1.6,0.9-2.2C46.7,9.3,47.4,9,48.3,9c0.4,0,0.8,0.1,1.2,0.3c0.4,0.2,0.7,0.4,0.9,0.7l-0.5,0.5C49.5,10,49,9.8,48.3,9.8
				c-0.6,0-1.2,0.2-1.6,0.7c-0.5,0.4-0.7,1-0.7,1.7c0,0.7,0.2,1.3,0.7,1.7c0.5,0.4,1,0.7,1.6,0.7c0.7,0,1.2-0.2,1.7-0.7
				c0.3-0.3,0.5-0.7,0.5-1.2h-2.2V12h2.9C51.2,12.1,51.2,12.3,51.2,12.4z"/>
			<path d="M55.8,9.9h-2.7v1.9h2.5v0.7h-2.5v1.9h2.7v0.7h-3.5v-6h3.5V9.9z"/>
			<path d="M59.1,15.2h-0.8V9.9h-1.7V9.2h4.1v0.7h-1.7V15.2z"/>
			<path d="M63.7,15.2v-6h0.8v6H63.7z"/>
			<path d="M67.9,15.2h-0.8V9.9h-1.7V9.2h4.1v0.7h-1.7V15.2z"/>
			<path d="M77.4,14.4c-0.6,0.6-1.3,0.9-2.2,0.9c-0.9,0-1.6-0.3-2.2-0.9c-0.6-0.6-0.9-1.3-0.9-2.2s0.3-1.6,0.9-2.2
				C73.6,9.3,74.3,9,75.2,9c0.9,0,1.6,0.3,2.2,0.9c0.6,0.6,0.9,1.3,0.9,2.2C78.3,13,78,13.8,77.4,14.4z M73.6,13.9
				c0.4,0.4,1,0.7,1.6,0.7c0.6,0,1.2-0.2,1.6-0.7c0.4-0.4,0.7-1,0.7-1.7c0-0.7-0.2-1.3-0.7-1.7c-0.4-0.4-1-0.7-1.6-0.7
				c-0.6,0-1.2,0.2-1.6,0.7c-0.4,0.4-0.7,1-0.7,1.7C72.9,12.9,73.1,13.4,73.6,13.9z"/>
			<path d="M79.4,15.2v-6h0.9l2.9,4.7h0l0-1.2V9.2H84v6h-0.8l-3.1-4.9h0l0,1.2v3.7H79.4z"/>
		</g>
		<path d="M70.4,24.1c-2.2,0-4,1.7-4,4c0,2.3,1.8,4,4,4c2.2,0,4-1.7,4-4C74.5,25.8,72.7,24.1,70.4,24.1z M70.4,30.6
			c-1.2,0-2.3-1-2.3-2.4c0-1.4,1.1-2.4,2.3-2.4c1.2,0,2.3,1,2.3,2.4C72.7,29.6,71.6,30.6,70.4,30.6z M61.6,24.1c-2.2,0-4,1.7-4,4
			c0,2.3,1.8,4,4,4c2.2,0,4-1.7,4-4C65.7,25.8,63.9,24.1,61.6,24.1z M61.6,30.6c-1.2,0-2.3-1-2.3-2.4c0-1.4,1.1-2.4,2.3-2.4
			c1.2,0,2.3,1,2.3,2.4C63.9,29.6,62.8,30.6,61.6,30.6z M51.2,25.4v1.7h4.1c-0.1,1-0.4,1.7-0.9,2.1c-0.6,0.6-1.5,1.2-3.2,1.2
			c-2.5,0-4.5-2-4.5-4.5s2-4.5,4.5-4.5c1.4,0,2.3,0.5,3.1,1.2l1.2-1.2c-1-1-2.4-1.7-4.3-1.7c-3.4,0-6.3,2.8-6.3,6.2
			c0,3.4,2.9,6.2,6.3,6.2c1.9,0,3.3-0.6,4.4-1.8c1.1-1.1,1.5-2.7,1.5-4c0-0.4,0-0.8-0.1-1.1H51.2z M94,26.7
			c-0.3-0.9-1.4-2.6-3.4-2.6c-2.1,0-3.8,1.6-3.8,4c0,2.3,1.7,4,4,4c1.8,0,2.9-1.1,3.3-1.8l-1.4-0.9c-0.5,0.7-1.1,1.1-2,1.1
			c-0.9,0-1.5-0.4-1.9-1.2l5.4-2.2L94,26.7z M88.5,28c0-1.6,1.2-2.3,2.1-2.3c0.7,0,1.3,0.3,1.5,0.9L88.5,28z M84.1,31.9h1.8V20.1
			h-1.8V31.9z M81.2,25L81.2,25c-0.5-0.5-1.2-0.9-2.2-0.9c-2,0-3.9,1.8-3.9,4c0,2.3,1.8,4,3.9,4c1,0,1.7-0.4,2.1-0.9h0.1v0.6
			c0,1.5-0.8,2.4-2.1,2.4c-1.1,0-1.8-0.8-2-1.4l-1.5,0.6c0.4,1.1,1.6,2.4,3.6,2.4c2.1,0,3.8-1.2,3.8-4.2v-7.2h-1.7V25z M79.2,30.6
			c-1.2,0-2.2-1-2.2-2.4c0-1.4,1-2.4,2.2-2.4c1.2,0,2.1,1,2.1,2.4C81.3,29.6,80.4,30.6,79.2,30.6z M102.2,20.1H98v11.8h1.8v-4.5h2.5
			c2,0,3.9-1.4,3.9-3.7S104.2,20.1,102.2,20.1z M102.3,25.8h-2.5v-4h2.5c1.3,0,2.1,1.1,2.1,2C104.3,24.7,103.6,25.8,102.3,25.8z
			 M113.2,24.1c-1.3,0-2.6,0.6-3.1,1.8l1.6,0.7c0.3-0.7,1-0.9,1.6-0.9c0.9,0,1.8,0.5,1.9,1.5v0.1c-0.3-0.2-1-0.5-1.8-0.5
			c-1.7,0-3.4,0.9-3.4,2.7c0,1.6,1.4,2.6,2.9,2.6c1.2,0,1.8-0.5,2.2-1.2h0.1v0.9h1.7v-4.5C116.8,25.3,115.2,24.1,113.2,24.1z
			 M113,30.6c-0.6,0-1.4-0.3-1.4-1c0-0.9,1-1.3,1.9-1.3c0.8,0,1.1,0.2,1.6,0.4C114.9,29.8,114,30.6,113,30.6z M123,24.4l-2,5.1h-0.1
			l-2.1-5.1h-1.9l3.1,7.2l-1.8,4h1.8l4.8-11.1H123z M107.1,31.9h1.8V20.1h-1.8V31.9z"/>
	</g>
	<g>
		<path d="M12.7,11c-0.3,0.3-0.4,0.7-0.4,1.3v20.2c0,0.6,0.2,1,0.4,1.3l0.1,0.1l11.3-11.3v-0.1v-0.1L12.7,11L12.7,11z"/>
		<path d="M30.1,26.3l-3.8-3.8v-0.1v-0.1l3.8-3.8l0.1,0l4.5,2.5c1.3,0.7,1.3,1.9,0,2.6L30.1,26.3L30.1,26.3z"/>
		<path d="M28.9,27.2L25,23.3L13.6,34.7c0.4,0.4,1.1,0.5,1.9,0.1L28.9,27.2"/>
		<path d="M28.9,17.6L15.5,10c-0.8-0.4-1.5-0.4-1.9,0.1L25,21.5L28.9,17.6z"/>
	</g>
	<g>
		<g>
			<path d="M129.1,3.2c2.3,0,4.2,1.9,4.2,4.2v30c0,2.3-1.9,4.2-4.2,4.2H8.1c-2.3,0-4.2-1.9-4.2-4.2v-30c0-2.3,1.9-4.2,4.2-4.2H129.1
				 M129.1,2.4H8.1c-2.8,0-5,2.2-5,5v30c0,2.8,2.2,5,5,5h121c2.8,0,5-2.2,5-5v-30C134.1,4.6,131.9,2.4,129.1,2.4L129.1,2.4z"/>
		</g>
	</g>
</g>
</svg>
