<?xml version="1.0" encoding="utf-8"?>
<!-- Generator: Adobe Illustrator 25.4.1, SVG Export Plug-In . SVG Version: 6.00 Build 0)  -->
<svg version="1.1" id="Capa_1" xmlns="http://www.w3.org/2000/svg" xmlns:xlink="http://www.w3.org/1999/xlink" x="0px" y="0px"
	 viewBox="0 0 137.2 44.8" style="enable-background:new 0 0 137.2 44.8;" xml:space="preserve">
<style type="text/css">
	.st0{fill:#878787;}
	.st1{fill:#FFFFFF;}
</style>
<g>
	<g>
		<g>
			<path d="M129.1,3.2c2.3,0,4.2,1.9,4.2,4.2v30c0,2.3-1.9,4.2-4.2,4.2H8.1c-2.3,0-4.2-1.9-4.2-4.2v-30c0-2.3,1.9-4.2,4.2-4.2H129.1
				 M129.1,2.4H8.1c-2.8,0-5,2.2-5,5v30c0,2.8,2.2,5,5,5h121c2.8,0,5-2.2,5-5v-30C134.1,4.6,131.9,2.4,129.1,2.4L129.1,2.4z"/>
		</g>
	</g>
	<g>
		<path d="M45.3,11.3h3.1v0.7h-2.2v1.3h2v0.7h-2v1.4h2.3v0.7h-3.1V11.3z"/>
		<path d="M50.4,13.7l-1.7-2.4h1l1.2,1.7l1.2-1.7h0.9l-1.7,2.3l1.7,2.5h-1l-1.3-1.9l-1.3,1.9h-1L50.4,13.7z"/>
		<path d="M54.6,16.2h-0.8v-4.9h1.8c1.1,0,1.7,0.7,1.7,1.6c0,0.9-0.6,1.6-1.7,1.6h-1V16.2z M55.4,13.8c0.6,0,1-0.3,1-0.9
			c0-0.6-0.4-0.9-1-0.9h-0.9v1.7H55.4z"/>
		<path d="M58,11.3h0.8v4.2H61v0.7h-3V11.3z"/>
		<path d="M61.1,13.8c0-1.5,1.1-2.5,2.5-2.5c1.4,0,2.5,1.1,2.5,2.5c0,1.4-1.1,2.5-2.5,2.5C62.2,16.3,61.1,15.2,61.1,13.8z
			 M65.3,13.8c0-1-0.7-1.8-1.7-1.8c-1,0-1.7,0.7-1.7,1.8c0,1,0.7,1.8,1.7,1.8C64.6,15.6,65.3,14.8,65.3,13.8z"/>
		<path d="M67,11.3h1.8c1,0,1.7,0.6,1.7,1.5c0,0.7-0.4,1.2-1,1.4l1.2,1.9h-1l-1.1-1.8h-0.8v1.8H67V11.3z M68.6,13.7
			c0.6,0,1-0.3,1-0.8c0-0.5-0.4-0.8-1-0.8h-0.8v1.6H68.6z"/>
		<path d="M71.4,11.3h3.1v0.7h-2.2v1.3h2v0.7h-2v1.4h2.3v0.7h-3.1V11.3z"/>
		<path d="M77.1,11.3h0.8v4.9h-0.8V11.3z"/>
		<path d="M82.4,12.1H81v4.2h-0.8v-4.2h-1.5v-0.7h3.8V12.1z"/>
		<path d="M84.4,13.8c0-1.5,1.1-2.5,2.5-2.5s2.5,1.1,2.5,2.5c0,1.4-1.1,2.5-2.5,2.5C85.4,16.3,84.4,15.2,84.4,13.8z M88.5,13.8
			c0-1-0.7-1.8-1.7-1.8c-1,0-1.7,0.7-1.7,1.8c0,1,0.7,1.8,1.7,1.8C87.8,15.6,88.5,14.8,88.5,13.8z"/>
		<path d="M91,16.2h-0.8v-4.9h0.9l2.3,3.6l0-3.6h0.8v4.9h-0.9L91,12.6L91,16.2z"/>
		<path d="M52.1,29.4h-4.4l-1,2.8h-1.9l4-11.1h2.2l4.1,11.1h-2L52.1,29.4z M51.6,27.8L49.9,23l-1.7,4.8H51.6z"/>
		<path d="M58,25.5c0.6-0.9,1.6-1.3,2.6-1.3c2.1,0,3.6,1.6,3.6,4.1c0,2.2-1.3,4.1-3.6,4.1c-1,0-1.9-0.3-2.4-1.1v4l-1.8,0.3V24.4h1.5
			L58,25.5z M60.2,25.8c-1.4,0-2.1,1.2-2.1,2.5c0,1.4,0.8,2.4,2.1,2.4c1.3,0,2.1-1,2.1-2.5C62.4,26.8,61.5,25.8,60.2,25.8z"/>
		<path d="M67.5,25.5c0.6-0.9,1.6-1.3,2.6-1.3c2.1,0,3.6,1.6,3.6,4.1c0,2.2-1.3,4.1-3.6,4.1c-1,0-1.9-0.3-2.4-1.1v4l-1.8,0.3V24.4
			h1.5L67.5,25.5z M69.7,25.8c-1.4,0-2.1,1.2-2.1,2.5c0,1.4,0.8,2.4,2.1,2.4c1.3,0,2.1-1,2.1-2.5C71.9,26.8,71,25.8,69.7,25.8z"/>
		<path d="M80.8,27.9v-1.5h4.8c0,3.8-1.8,6-5,6c-3.5,0-5.6-2.5-5.6-5.6c0-3.3,2.4-5.8,5.6-5.8c1.4,0,2.8,0.5,3.8,1.3l-0.8,1.3
			c-0.8-0.6-1.8-0.9-2.8-0.9c-2.3,0-3.8,1.8-3.8,4.1c0,2.2,1.4,4,3.6,4c1.7,0,3-1.1,3.1-2.9H80.8z"/>
		<path d="M93.7,32.4c-1,0-1.9-0.4-2-1.2c-0.5,0.8-1.5,1.2-2.5,1.2c-1.5,0-2.8-0.9-2.8-2.4c0-1.5,1.2-2.6,3.4-2.6
			c0.6,0,1.3,0.1,1.8,0.2v-0.4c0-1.1-0.8-1.5-1.8-1.5c-0.8,0-1.6,0.2-2.2,0.6L87,25.1c0.9-0.6,2.1-0.9,3.1-0.9
			c2.1,0,3.3,0.9,3.3,2.8v3c0,0.6,0.1,0.9,0.5,1.1L93.7,32.4z M90,28.7c-1.3,0-1.9,0.4-1.9,1.2c0,0.8,0.7,1.1,1.3,1.1
			c1,0,2.1-0.6,2.1-1.6v-0.5C91.2,28.8,90.6,28.7,90,28.7z"/>
		<path d="M95.5,20.9l1.8-0.3v9.2c0,0.6,0.1,0.9,0.6,1.2l-0.2,1.4c-1.1,0-2.1-0.6-2.1-1.9V20.9z"/>
		<path d="M99.5,20.9l1.8-0.3v9.2c0,0.6,0.1,0.9,0.6,1.2l-0.2,1.4c-1.1,0-2.1-0.6-2.1-1.9V20.9z"/>
		<path d="M107.1,32.4c-2.2,0-4-1.4-4-4c0-2.5,1.7-4.1,3.9-4.1c2.3,0,3.7,1.7,3.7,3.9c0,0.2,0,0.5,0,0.7h-5.8c0.1,1.3,1,2.1,2.3,2.1
			c0.8,0,1.5-0.3,2.1-0.7l0.8,1.1C109.4,32,108.3,32.4,107.1,32.4z M108.9,27.6c-0.1-1-0.7-1.9-1.9-1.9c-1.1,0-1.9,0.8-2.1,1.9
			H108.9z"/>
		<path d="M112.2,24.4h1.5l0.2,1.2l0,0c0.4-0.9,1.1-1.4,2.1-1.4c0.4,0,0.7,0.1,1,0.1l-0.3,1.7c-0.3-0.1-0.6-0.1-0.8-0.1
			c-1.5,0-1.9,1.3-1.9,2.9v3.4h-1.8V24.4z"/>
		<path d="M123.6,24.4h1.9l-3.8,9.4c-0.6,1.4-1.6,1.9-2.6,1.9c-0.4,0-0.9-0.1-1.3-0.3L118,34c0.2,0.1,0.4,0.1,0.7,0.1
			c0.6,0,1.2-0.3,1.6-1.2l0.2-0.6l-3.1-7.9h2l2.1,5.8L123.6,24.4z"/>
	</g>
	<g>
		<path d="M10.9,30c0-5.1,0-10.1,0-15.2c0,0,0-0.1,0-0.1c0-0.4,0.1-0.7,0.1-1c0.2-0.7,0.4-1.3,0.8-1.9c0.3-0.4,0.7-0.8,1.1-1.2
			c0.5-0.4,1-0.7,1.5-0.9c0.7-0.3,1.4-0.4,2.1-0.4c5,0,9.9,0,14.9,0c0.2,0,0.4,0,0.6,0c0.4,0,0.8,0.1,1.1,0.2
			c0.6,0.2,1.2,0.5,1.8,0.9c0.4,0.3,0.7,0.7,1,1.1c0.4,0.5,0.7,1.1,0.9,1.7c0.2,0.5,0.2,1,0.2,1.6c0,4.9,0,9.9,0,14.8
			c0,0.3,0,0.6-0.1,1c-0.1,0.5-0.2,1-0.4,1.5c-0.4,0.8-0.9,1.6-1.7,2.1c-0.4,0.4-0.9,0.6-1.5,0.8c-0.7,0.3-1.4,0.4-2.2,0.4
			c-4.8,0-9.7,0-14.5,0c-0.5,0-1,0-1.4-0.1c-0.7-0.1-1.4-0.4-2-0.8c-0.4-0.3-0.8-0.6-1.1-1c-0.3-0.3-0.5-0.7-0.7-1
			C11.2,31.7,10.9,30.9,10.9,30C10.9,30,10.9,30,10.9,30z"/>
		<path d="M26.9,23.4c0.1,0.2,0.1,0.4,0.2,0.6c0.2,0.5,0.4,1,0.5,1.5c0,0.1,0.1,0.1,0.1,0.1c0.1,0,0.3,0,0.4,0c0.1,0,0.1,0,0.1-0.1
			c0.1-0.3,0.2-0.7,0.4-1c0.2-0.5,0.3-1,0.5-1.5c0.1-0.3,0.2-0.6,0.3-0.9c-0.2,0-0.4,0-0.6,0c-0.1,0-0.1,0-0.2,0.1
			c-0.2,0.6-0.4,1.3-0.6,1.9c0,0.1-0.1,0.2-0.1,0.3c-0.1-0.3-0.2-0.5-0.3-0.8c-0.2-0.5-0.3-1-0.5-1.5c0-0.1-0.1-0.1-0.1-0.1
			c-0.1,0-0.2,0-0.4,0c-0.1,0-0.1,0-0.1,0.1c-0.2,0.5-0.3,1-0.5,1.5c-0.1,0.2-0.2,0.5-0.2,0.7c-0.1-0.3-0.2-0.5-0.3-0.8
			c-0.2-0.5-0.3-1-0.5-1.5c0,0,0-0.1-0.1-0.1c-0.2,0-0.5,0-0.7,0c0,0.1,0,0.1,0,0.1c0.2,0.5,0.3,0.9,0.5,1.4
			c0.2,0.6,0.4,1.2,0.7,1.8c0,0.1,0.1,0.1,0.1,0.1c0.1,0,0.3,0,0.4,0c0.1,0,0.1,0,0.1-0.1c0.1-0.4,0.3-0.8,0.4-1.3
			C26.7,24,26.8,23.7,26.9,23.4z"/>
		<path d="M15.9,22.2c0,0.5,0,0.9,0,1.4c-0.5,0-1.1,0-1.6,0c0,0,0-0.1,0-0.1c0-0.4,0-0.8,0-1.1c0-0.1,0-0.1-0.1-0.1
			c-0.2,0-0.3,0-0.5,0c-0.1,0-0.1,0-0.1,0.1c0,1.1,0,2.1,0,3.2c0,0.1,0,0.1,0.1,0.1c0.2,0,0.3,0,0.5,0c0.1,0,0.1,0,0.1-0.1
			c0-0.4,0-0.8,0-1.2c0,0,0-0.1,0-0.1c0.5,0,1.1,0,1.6,0c0,0.5,0,0.9,0,1.4c0.2,0,0.5,0,0.7,0c0-1.1,0-2.3,0-3.4
			C16.3,22.2,16.1,22.2,15.9,22.2z"/>
		<path d="M30.8,23.5c0-0.2,0-0.5,0-0.7c0.2,0,0.4,0,0.6,0c0.4,0,0.8,0,1.1,0c0,0,0.1,0,0.1,0c0-0.2,0-0.4,0-0.6c-0.9,0-1.7,0-2.6,0
			c0,0,0,0,0,0c0,1.1,0,2.2,0,3.3c0,0.1,0,0.1,0.1,0.1c0.4,0,0.8,0,1.2,0c0.4,0,0.8,0,1.3,0c0,0,0.1,0,0.1-0.1c0-0.2,0-0.4,0-0.6
			c-0.7,0-1.3,0-1.9,0c0-0.3,0-0.6,0-0.8c0.4,0,0.8,0,1.3,0c0-0.2,0-0.4,0-0.6C31.6,23.5,31.2,23.5,30.8,23.5z"/>
		<path d="M17.5,22.2c0,0.1,0,0.1,0,0.1c0,0.6,0,1.1,0,1.7c0,0.2,0,0.4,0,0.5c0.1,0.4,0.2,0.7,0.6,0.9c0.2,0.1,0.4,0.2,0.7,0.2
			c0.3,0,0.7,0,1-0.1c0.5-0.2,0.7-0.7,0.7-1.2c0-0.7,0-1.3,0-2c0-0.1,0-0.1-0.1-0.1c-0.2,0-0.3,0-0.5,0c-0.1,0-0.1,0-0.1,0.1
			c0,0.6,0,1.3,0,1.9c0,0.2-0.1,0.4-0.2,0.5C19.4,25,19.1,25,18.9,25c-0.2,0-0.3-0.1-0.4-0.2c-0.1-0.2-0.2-0.3-0.2-0.5
			c0-0.6,0-1.3,0-1.9c0,0,0-0.1,0-0.1C18,22.2,17.8,22.2,17.5,22.2z"/>
		<path d="M24.6,25.6c-0.1-0.2-0.1-0.3-0.2-0.5c-0.2-0.4-0.4-0.9-0.6-1.3c-0.2-0.5-0.4-1-0.7-1.5c0,0-0.1-0.1-0.1-0.1
			c-0.1,0-0.3,0-0.4,0c-0.1,0-0.1,0-0.2,0.1c-0.2,0.5-0.4,0.9-0.6,1.4c-0.2,0.5-0.5,1.1-0.7,1.6c0,0.1-0.1,0.2-0.1,0.3
			c0.2,0,0.4,0,0.6,0c0.1,0,0.1,0,0.1-0.1c0.1-0.2,0.2-0.4,0.2-0.6c0-0.1,0-0.1,0.1-0.1c0.5,0,1,0,1.5,0c0.1,0,0.1,0,0.1,0.1
			c0.1,0.2,0.2,0.4,0.3,0.6c0,0,0.1,0.1,0.1,0.1C24.1,25.6,24.4,25.6,24.6,25.6z"/>
		<path d="M34.2,25.6c0-1.1,0-2.3,0-3.4c-0.2,0-0.4,0-0.6,0c-0.1,0-0.1,0-0.1,0.1c0,1.1,0,2.1,0,3.2c0,0,0,0.1,0,0.1
			C33.8,25.6,34,25.6,34.2,25.6z"/>
		<circle class="st0" cx="17.3" cy="11.8" r="0.7"/>
		<circle class="st0" cx="30.6" cy="11.8" r="0.7"/>
		<path class="st1" d="M26.9,23.4c-0.1,0.3-0.2,0.6-0.3,0.9c-0.1,0.4-0.3,0.8-0.4,1.3c0,0.1-0.1,0.1-0.1,0.1c-0.1,0-0.3,0-0.4,0
			c-0.1,0-0.1,0-0.1-0.1c-0.2-0.6-0.4-1.2-0.7-1.8c-0.2-0.5-0.3-0.9-0.5-1.4c0,0,0-0.1,0-0.1c0.2,0,0.5,0,0.7,0c0,0,0.1,0,0.1,0.1
			c0.2,0.5,0.3,1,0.5,1.5c0.1,0.3,0.2,0.5,0.3,0.8c0.1-0.3,0.2-0.5,0.2-0.7c0.2-0.5,0.3-1,0.5-1.5c0-0.1,0.1-0.1,0.1-0.1
			c0.1,0,0.2,0,0.4,0c0.1,0,0.1,0,0.1,0.1c0.2,0.5,0.3,1,0.5,1.5c0.1,0.2,0.2,0.5,0.3,0.8c0-0.1,0.1-0.2,0.1-0.3
			c0.2-0.6,0.4-1.3,0.6-1.9c0-0.1,0.1-0.1,0.2-0.1c0.2,0,0.4,0,0.6,0c-0.1,0.3-0.2,0.6-0.3,0.9c-0.2,0.5-0.3,1-0.5,1.5
			c-0.1,0.3-0.2,0.7-0.4,1c0,0.1,0,0.1-0.1,0.1c-0.1,0-0.3,0-0.4,0c-0.1,0-0.1,0-0.1-0.1c-0.2-0.5-0.4-1-0.5-1.5
			C27.1,23.8,27,23.6,26.9,23.4z"/>
		<path class="st1" d="M15.9,22.2c0.2,0,0.5,0,0.7,0c0,1.1,0,2.3,0,3.4c-0.2,0-0.5,0-0.7,0c0-0.5,0-0.9,0-1.4c-0.5,0-1.1,0-1.6,0
			c0,0,0,0.1,0,0.1c0,0.4,0,0.8,0,1.2c0,0.1,0,0.1-0.1,0.1c-0.2,0-0.3,0-0.5,0c-0.1,0-0.1,0-0.1-0.1c0-1.1,0-2.1,0-3.2
			c0-0.1,0-0.1,0.1-0.1c0.2,0,0.3,0,0.5,0c0.1,0,0.1,0,0.1,0.1c0,0.4,0,0.8,0,1.1c0,0,0,0.1,0,0.1c0.5,0,1.1,0,1.6,0
			C15.9,23.1,15.9,22.6,15.9,22.2z"/>
		<path class="st1" d="M30.8,23.5c0.4,0,0.8,0,1.3,0c0,0.2,0,0.4,0,0.6c-0.4,0-0.8,0-1.3,0c0,0.3,0,0.6,0,0.8c0.6,0,1.3,0,1.9,0
			c0,0.2,0,0.4,0,0.6c0,0.1-0.1,0.1-0.1,0.1c-0.4,0-0.8,0-1.3,0c-0.4,0-0.8,0-1.2,0c-0.1,0-0.1,0-0.1-0.1c0-1.1,0-2.2,0-3.3
			c0,0,0,0,0,0c0.9,0,1.7,0,2.6,0c0,0.2,0,0.4,0,0.6c0,0-0.1,0-0.1,0c-0.4,0-0.8,0-1.1,0c-0.2,0-0.4,0-0.6,0
			C30.8,23.1,30.8,23.3,30.8,23.5z"/>
		<path class="st1" d="M17.5,22.2c0.2,0,0.5,0,0.7,0c0,0,0,0.1,0,0.1c0,0.6,0,1.3,0,1.9c0,0.2,0.1,0.4,0.2,0.5
			c0.1,0.1,0.3,0.2,0.4,0.2c0.3,0,0.6,0,0.8-0.2c0.1-0.1,0.2-0.3,0.2-0.5c0-0.6,0-1.3,0-1.9c0-0.1,0-0.1,0.1-0.1c0.2,0,0.3,0,0.5,0
			c0.1,0,0.1,0,0.1,0.1c0,0.7,0,1.3,0,2c0,0.5-0.2,1-0.7,1.2c-0.3,0.2-0.7,0.2-1,0.1c-0.2,0-0.5-0.1-0.7-0.2
			c-0.3-0.2-0.5-0.5-0.6-0.9c0-0.2,0-0.3,0-0.5c0-0.6,0-1.1,0-1.7C17.5,22.3,17.5,22.2,17.5,22.2z"/>
		<path class="st1" d="M24.6,25.6c-0.2,0-0.5,0-0.7,0c0,0-0.1,0-0.1-0.1c-0.1-0.2-0.2-0.4-0.3-0.6c0,0,0-0.1-0.1-0.1
			c-0.5,0-1,0-1.5,0c-0.1,0-0.1,0-0.1,0.1c-0.1,0.2-0.2,0.4-0.2,0.6c0,0.1-0.1,0.1-0.1,0.1c-0.2,0-0.4,0-0.6,0
			c0-0.1,0.1-0.2,0.1-0.3c0.2-0.5,0.5-1.1,0.7-1.6c0.2-0.5,0.4-0.9,0.6-1.4c0-0.1,0.1-0.1,0.2-0.1c0.1,0,0.3,0,0.4,0
			c0,0,0.1,0,0.1,0.1c0.2,0.5,0.4,1,0.7,1.5c0.2,0.5,0.4,0.9,0.6,1.3C24.4,25.3,24.5,25.4,24.6,25.6z M22.7,23.1
			c-0.2,0.4-0.3,0.8-0.5,1.2c0.4,0,0.7,0,1,0C23.1,23.9,22.9,23.5,22.7,23.1z"/>
		<path class="st1" d="M34.2,25.6c-0.2,0-0.5,0-0.7,0c0,0,0-0.1,0-0.1c0-1.1,0-2.1,0-3.2c0-0.1,0-0.1,0.1-0.1c0.2,0,0.4,0,0.6,0
			C34.2,23.3,34.2,24.5,34.2,25.6z"/>
		<path d="M22.7,23.1c0.2,0.4,0.4,0.8,0.5,1.2c-0.4,0-0.7,0-1,0C22.4,23.9,22.6,23.5,22.7,23.1z"/>
		<path class="st1" d="M23.9,16.1c0.3,0,0.6,0,0.9-0.1c0.4-0.1,0.9-0.1,1.3-0.2c0.9-0.2,1.7-0.6,2.5-1.1c0.7-0.5,1.2-1,1.7-1.7
			c0.2-0.3,0.4-0.6,0.5-0.9c0.1-0.2,0-0.4-0.1-0.4c-0.1-0.1-0.3,0-0.4,0.1c-0.1,0.1-0.2,0.3-0.3,0.4c-0.4,0.6-0.9,1.1-1.5,1.6
			c-0.5,0.4-1.1,0.8-1.7,1.1c-0.8,0.3-1.6,0.5-2.5,0.6c-0.5,0-1,0-1.5-0.1c-0.7-0.1-1.3-0.3-1.9-0.6c-0.8-0.4-1.5-0.9-2.1-1.5
			c-0.5-0.5-0.9-1-1.2-1.5c-0.1-0.1-0.3-0.2-0.4,0C17,11.8,17,12,17,12.2c0.1,0.1,0.2,0.3,0.2,0.4c0.4,0.7,1,1.4,1.7,1.9
			c0.6,0.5,1.3,0.9,2,1.1C21.9,15.9,22.9,16.1,23.9,16.1z"/>
	</g>
</g>
</svg>
